<?xml version="1.0" encoding="utf-8"?>
<!-- Generator: Adobe Illustrator 24.0.0, SVG Export Plug-In . SVG Version: 6.00 Build 0)  -->
<svg xmlns="http://www.w3.org/2000/svg" xmlns:xlink="http://www.w3.org/1999/xlink" width="130px" height="52px" viewBox="0 0 130 52" version="1.1">
<style type="text/css">
	.st0{opacity:0.2;}
	.st1{fill:#ED2024;}
	.st2{fill:#FF240C;}
	.st3{fill:#FFA348;}
	.st4{fill:#EA0005;}
	.st5{fill:#FF7C18;}
</style>
<title>OrderGuru_signature_layout</title>
<desc>Created with Sketch.</desc>
<g id="Group" transform="translate(25.000000, 50.500000)" class="st0">
	<g id="Rectangle">
		<rect x="0.5" y="0" class="st1" width="1" height="1"/>
	</g>
</g>
<g id="Group_1_" transform="translate(0.000000, 26.500000)" class="st0">
	<g id="Rectangle_1_">
		<rect x="0.5" y="0.1" class="st1" width="1" height="1"/>
	</g>
</g>
<path class="st2" d="M5.8,25.5L5.8,25.5c0-5,3.9-9,9.4-9s9.3,4,9.3,8.9l0,0c0,4.9-3.9,8.9-9.4,8.9S5.8,30.4,5.8,25.5z M20.5,25.5
	L20.5,25.5c0-3-2.2-5.5-5.3-5.5s-5.3,2.4-5.3,5.4l0,0c0,3,2.2,5.4,5.3,5.4C18.3,30.9,20.5,28.5,20.5,25.5z"/>
<g>
	<polygon id="Path_1_" class="st3" points="37.6,42 40.4,44.5 46.2,43.5 47.5,41 46.2,38.5 40.4,37.5 37.6,40 37.6,40.6 6.6,38.7 
		5.5,41 6.6,43.3 37.6,41.4 	"/>
	<polygon id="Path_2_" class="st3" points="13.2,6.5 6.2,7.7 13.3,8.7 5.5,10 13.3,11.3 6.2,12.3 13.2,13.5 15.3,10.4 46.4,12.3 
		47.5,10 46.4,7.7 15.3,9.6 	"/>
	<path id="Shape_1_" class="st4" d="M51.5,51.5h-51v-51h51V51.5z M1.1,50.9H51V1.1H1.1V50.9z"/>
	<path class="st2" d="M31.9,18.5c0-1.1,0.9-2,2-2h5.4c4.3,0,6.9,2.5,6.9,6.1v0.1c0,4.1-3.3,6.2-7.3,6.2h-3v3.5c0,1.1-0.9,1.9-2,1.9
		s-2-0.8-2-1.9C31.9,32.4,31.9,18.5,31.9,18.5z M39,25.5c2,0,3.2-1.2,3.2-2.7v-0.1c0-1.8-1.2-2.7-3.2-2.7h-3.1v5.4H39V25.5z"/>
	<g>
		<g>
			<g>
				<path class="st5" d="M53.8,15.9L53.8,15.9c0-3.7,2.8-6.7,6.7-6.7s6.7,3,6.7,6.6l0,0c0,3.7-2.8,6.6-6.7,6.6S53.8,19.6,53.8,15.9z
					 M64.4,15.9L64.4,15.9c0-2.2-1.6-4.1-3.8-4.1s-3.8,1.8-3.8,4l0,0c0,2.2,1.6,4,3.8,4C62.8,20,64.4,18.1,64.4,15.9z"/>
				<path class="st5" d="M69.8,10.9c0-0.8,0.6-1.4,1.4-1.4h4.4c1.6,0,2.9,0.5,3.7,1.3c0.7,0.7,1.1,1.7,1.1,2.9l0,0
					c0,2-1,3.3-2.5,3.9l1.9,2.4c0.3,0.3,0.5,0.6,0.5,1.1c0,0.8-0.7,1.3-1.3,1.3c-0.6,0-1-0.3-1.4-0.7l-2.7-3.5h-2.2V21
					c0,0.8-0.6,1.4-1.4,1.4s-1.4-0.6-1.4-1.4L69.8,10.9L69.8,10.9z M75.4,15.7c1.4,0,2.1-0.7,2.1-1.8l0,0c0-1.2-0.8-1.8-2.2-1.8
					h-2.8v3.7L75.4,15.7L75.4,15.7z"/>
				<path class="st5" d="M82.8,10.9c0-0.8,0.6-1.4,1.4-1.4h3.5c4,0,6.7,2.8,6.7,6.4l0,0c0,3.6-2.7,6.4-6.7,6.4h-3.5
					c-0.8,0-1.4-0.6-1.4-1.4V10.9z M87.8,19.8c2.3,0,3.8-1.6,3.8-3.8l0,0c0-2.3-1.5-3.9-3.8-3.9h-2.2v7.8L87.8,19.8L87.8,19.8z"/>
				<path class="st5" d="M97,20.9v-10c0-0.8,0.6-1.4,1.4-1.4h7c0.7,0,1.2,0.6,1.2,1.3S106,12,105.4,12h-5.6v2.6h4.8
					c0.7,0,1.2,0.6,1.2,1.3s-0.6,1.2-1.2,1.2h-4.8v2.7h5.7c0.7,0,1.2,0.6,1.2,1.3c0,0.7-0.6,1.2-1.2,1.2h-7.1
					C97.6,22.3,97,21.7,97,20.9z"/>
				<path class="st5" d="M109.1,10.9c0-0.8,0.6-1.4,1.4-1.4h4.4c1.6,0,2.9,0.5,3.7,1.3c0.7,0.7,1.1,1.7,1.1,2.9l0,0
					c0,2-1,3.3-2.5,3.9l1.9,2.4c0.3,0.3,0.5,0.6,0.5,1.1c0,0.8-0.7,1.3-1.3,1.3c-0.6,0-1-0.3-1.4-0.7l-2.7-3.5H112V21
					c0,0.8-0.6,1.4-1.4,1.4s-1.4-0.6-1.4-1.4L109.1,10.9L109.1,10.9z M114.7,15.7c1.4,0,2.1-0.7,2.1-1.8l0,0c0-1.2-0.8-1.8-2.2-1.8
					h-2.8v3.7L114.7,15.7L114.7,15.7z"/>
				<path class="st5" d="M54.4,31.1c0-0.8,0.6-1.4,1.4-1.4h3.8c3,0,4.8,1.8,4.8,4.4l0,0c0,3-2.3,4.5-5.1,4.5h-2.1v2.6
					c0,0.8-0.6,1.4-1.4,1.4c-0.8,0-1.4-0.6-1.4-1.4V31.1z M59.4,36.2c1.4,0,2.2-0.8,2.2-1.9l0,0c0-1.3-0.9-1.9-2.3-1.9h-2.2v3.9
					L59.4,36.2L59.4,36.2z"/>
				<path class="st5" d="M65.9,36.1L65.9,36.1c0-3.7,2.8-6.7,6.7-6.7c3.9,0,6.7,3,6.7,6.6l0,0c0,3.7-2.8,6.6-6.7,6.6
					C68.7,42.7,65.9,39.8,65.9,36.1z M76.5,36.1L76.5,36.1c0-2.2-1.6-4.1-3.8-4.1c-2.2,0-3.8,1.8-3.8,4l0,0c0,2.2,1.6,4,3.8,4
					C74.9,40.2,76.5,38.4,76.5,36.1z"/>
				<path class="st5" d="M81.8,31.1c0-0.8,0.6-1.4,1.4-1.4h4.4c1.6,0,2.9,0.5,3.7,1.3c0.7,0.7,1.1,1.7,1.1,2.9l0,0
					c0,2-1,3.3-2.5,3.9l1.9,2.4c0.3,0.3,0.5,0.6,0.5,1.1c0,0.8-0.7,1.3-1.3,1.3c-0.6,0-1-0.3-1.4-0.7l-2.7-3.5h-2.2v2.8
					c0,0.8-0.6,1.4-1.4,1.4s-1.4-0.6-1.4-1.4L81.8,31.1L81.8,31.1z M87.5,35.9c1.4,0,2.1-0.7,2.1-1.8l0,0c0-1.2-0.8-1.8-2.2-1.8
					h-2.8V36h2.9V35.9z"/>
				<path class="st5" d="M97.9,32.3h-2.7c-0.7,0-1.3-0.6-1.3-1.3c0-0.7,0.6-1.3,1.3-1.3h8.1c0.7,0,1.3,0.6,1.3,1.3
					c0,0.7-0.6,1.3-1.3,1.3h-2.7v8.9c0,0.8-0.6,1.4-1.4,1.4s-1.4-0.6-1.4-1.4L97.9,32.3L97.9,32.3z"/>
				<path class="st5" d="M104.6,40.7l4.4-10.1c0.3-0.7,0.9-1.1,1.6-1.1h0.2c0.8,0,1.3,0.4,1.6,1.1l4.4,10.1c0.1,0.2,0.1,0.4,0.1,0.6
					c0,0.8-0.6,1.3-1.3,1.3c-0.7,0-1.1-0.4-1.3-1l-0.9-2h-5.6l-0.9,2.1c-0.2,0.6-0.7,0.9-1.3,0.9c-0.7,0-1.3-0.6-1.3-1.3
					C104.4,41.1,104.5,40.9,104.6,40.7z M112.4,37.2l-1.8-4.2l-1.8,4.2H112.4z"/>
			</g>
			<path class="st5" d="M119.2,31c0-0.8,0.6-1.4,1.4-1.4s1.4,0.6,1.4,1.4v9h5.2c0.7,0,1.3,0.6,1.3,1.3s-0.6,1.3-1.3,1.3h-6.7
				c-0.8,0-1.4-0.6-1.4-1.4L119.2,31L119.2,31z"/>
		</g>
	</g>
</g>
</svg>
